<svg xmlns="http://www.w3.org/2000/svg" version="1.1" xmlns:xlink="http://www.w3.org/1999/xlink" width="512" height="512" x="0" y="0" viewBox="0 0 60 60" style="enable-background:new 0 0 512 512" xml:space="preserve" class="">
                                                        <g>
                                                            <g fill="#000" fill-rule="nonzero">
                                                                <path d="M30 9C18.402 9 9 18.402 9 30s9.402 21 21 21 21-9.402 21-21c-.013-11.592-9.408-20.987-21-21zM13.557 39.478a9.305 9.305 0 0 0 1.142-.634c.76-.57 1.69-.867 2.641-.844a4.215 4.215 0 0 1 2.637.846A6.133 6.133 0 0 0 23.68 40a6.116 6.116 0 0 0 3.693-1.153 4.516 4.516 0 0 1 5.262 0 6.5 6.5 0 0 0 7.4 0 4.527 4.527 0 0 1 5.266-.005c.366.239.748.451 1.144.635-.4.69-.845 1.355-1.329 1.99A6.044 6.044 0 0 0 42.67 41a6.128 6.128 0 0 0-3.7 1.156 4.516 4.516 0 0 1-5.262 0 6.5 6.5 0 0 0-7.4 0 4.518 4.518 0 0 1-5.262 0A6.133 6.133 0 0 0 17.34 41a6.074 6.074 0 0 0-2.454.467 19.069 19.069 0 0 1-1.329-1.989zM30 49a18.931 18.931 0 0 1-13.712-5.883A4.6 4.6 0 0 1 17.34 43a4.215 4.215 0 0 1 2.637.846A6.133 6.133 0 0 0 23.68 45a6.116 6.116 0 0 0 3.693-1.153 4.516 4.516 0 0 1 5.262 0 6.5 6.5 0 0 0 7.4 0A4.213 4.213 0 0 1 42.67 43c.351-.002.702.037 1.044.115A18.93 18.93 0 0 1 30 49zm17.358-11.308a6.737 6.737 0 0 1-.994-.542 6.512 6.512 0 0 0-7.4.006 4.516 4.516 0 0 1-5.262 0 6.5 6.5 0 0 0-7.4 0 4.518 4.518 0 0 1-5.262 0A6.133 6.133 0 0 0 17.34 36a6.148 6.148 0 0 0-3.7 1.151 6.72 6.72 0 0 1-.993.541 19 19 0 1 1 34.716 0z" fill="#FFFFFF" opacity="1" data-original="#000000"></path>
                                                                <path d="m58.2 25.02-2.8-.559a25.653 25.653 0 0 0-3.522-8.508l1.579-2.369c.11-.165.168-.358.168-.555 0-.3-.116-1.945-2.414-4.242s-3.937-2.414-4.242-2.414a1 1 0 0 0-.555.168L44.047 8.12A25.669 25.669 0 0 0 35.54 4.6l-.56-2.8a1 1 0 0 0-.273-.511C34.491 1.077 33.25 0 30 0s-4.491 1.077-4.707 1.293a1 1 0 0 0-.273.511L24.46 4.6a25.669 25.669 0 0 0-8.507 3.52l-2.369-1.579a1 1 0 0 0-.555-.168c-.3 0-1.944.116-4.242 2.414s-2.414 3.937-2.414 4.242c0 .197.059.39.168.555l1.579 2.369a25.653 25.653 0 0 0-3.52 8.508l-2.8.559a.991.991 0 0 0-.511.273C1.077 25.509 0 26.75 0 30s1.077 4.491 1.293 4.707c.14.14.317.235.511.273l2.794.559a25.653 25.653 0 0 0 3.522 8.508l-1.579 2.369c-.11.165-.168.358-.168.555 0 .305.116 1.945 2.414 4.242s3.937 2.414 4.242 2.414a1 1 0 0 0 .555-.168l2.369-1.579a25.669 25.669 0 0 0 8.507 3.52l.56 2.794a1 1 0 0 0 .273.511C25.509 58.923 26.75 60 30 60s4.491-1.077 4.707-1.293a1 1 0 0 0 .273-.511l.56-2.794a25.669 25.669 0 0 0 8.507-3.522l2.369 1.579a1 1 0 0 0 .555.168c.305 0 1.944-.116 4.242-2.414s2.414-3.937 2.414-4.242c0-.197-.059-.39-.168-.555l-1.579-2.369a25.653 25.653 0 0 0 3.52-8.508l2.8-.559a.991.991 0 0 0 .511-.273C58.923 34.491 60 33.25 60 30s-1.077-4.491-1.293-4.707a.991.991 0 0 0-.507-.273zm-.791 8.08-3.051.61a1 1 0 0 0-.786.794 23.74 23.74 0 0 1-3.718 8.984 1 1 0 0 0-.006 1.118l1.723 2.586A6.516 6.516 0 0 1 49.8 49.8a6.572 6.572 0 0 1-2.6 1.776l-2.6-1.728a1 1 0 0 0-1.118.005 23.73 23.73 0 0 1-8.982 3.719 1 1 0 0 0-.794.786l-.61 3.051A6.516 6.516 0 0 1 30 58a6.576 6.576 0 0 1-3.1-.586l-.611-3.056a1 1 0 0 0-.794-.786 23.73 23.73 0 0 1-8.983-3.719 1 1 0 0 0-1.118-.005l-2.584 1.724A6.516 6.516 0 0 1 10.2 49.8a6.565 6.565 0 0 1-1.775-2.6l1.726-2.59a1 1 0 0 0-.006-1.118A23.74 23.74 0 0 1 6.428 34.5a1 1 0 0 0-.786-.794L2.591 33.1A6.511 6.511 0 0 1 2 30a6.576 6.576 0 0 1 .586-3.1l3.056-.61a1 1 0 0 0 .786-.794 23.74 23.74 0 0 1 3.718-8.984 1 1 0 0 0 .006-1.118L8.429 12.81A6.516 6.516 0 0 1 10.2 10.2a6.572 6.572 0 0 1 2.6-1.776l2.59 1.727a1 1 0 0 0 1.118 0A23.73 23.73 0 0 1 25.5 6.428a1 1 0 0 0 .794-.786l.61-3.051A6.516 6.516 0 0 1 30 2a6.576 6.576 0 0 1 3.1.586l.611 3.056a1 1 0 0 0 .794.786 23.73 23.73 0 0 1 8.983 3.719 1 1 0 0 0 1.118 0l2.584-1.719A6.516 6.516 0 0 1 49.8 10.2a6.565 6.565 0 0 1 1.775 2.6l-1.727 2.6a1 1 0 0 0 .006 1.118 23.74 23.74 0 0 1 3.718 8.982 1 1 0 0 0 .786.794l3.051.61c.448.968.65 2.031.591 3.096a6.511 6.511 0 0 1-.591 3.1z" fill="#FFFFFF" opacity="1" data-original="#000000"></path>
                                                                <path d="M31.22 13.464a1.847 1.847 0 0 0-2.44 0c-2.039 1.8-6.78 6.586-6.78 12.2a8.537 8.537 0 0 0 2.506 6.046A7.784 7.784 0 0 0 30 34h.1a8.208 8.208 0 0 0 7.9-8.336c0-5.611-4.741-10.401-6.78-12.2zM30.074 32a5.763 5.763 0 0 1-4.163-1.714A6.525 6.525 0 0 1 24 25.663c0-4.82 4.46-9.229 6-10.607 1.54 1.378 6 5.79 6 10.608A6.2 6.2 0 0 1 30.074 32z" fill="#FFFFFF" opacity="1" data-original="#000000"></path>
                                                                <path d="M29.964 28A1.984 1.984 0 0 1 28 26a1 1 0 0 0-2 0 3.986 3.986 0 0 0 3.964 4H30a.984.984 0 0 0 .981-1 1.014 1.014 0 0 0-1.017-1z" fill="#FFFFFF" opacity="1" data-original="#000000"></path>
                                                            </g>
                                                        </g>
                                                    </svg>