<svg xmlns="http://www.w3.org/2000/svg" version="1.1" xmlns:xlink="http://www.w3.org/1999/xlink" width="512" height="512" x="0" y="0" viewBox="0 0 60 60" style="enable-background:new 0 0 512 512" xml:space="preserve" class="">
                                                        <g>
                                                            <g fill="#000" fill-rule="nonzero">
                                                                <path d="M58 33h-1.184A3 3 0 0 0 54 31h-2.278A1.993 1.993 0 0 0 50 30h-3.278A1.993 1.993 0 0 0 45 29h-3a1.993 1.993 0 0 0-1.722 1H37v-2a3 3 0 0 0-3-3V13l1.5-2h8a3.5 3.5 0 0 0 0-7h-8l-2.1-2.8A3.016 3.016 0 0 0 31 0h-2a3.014 3.014 0 0 0-2.4 1.2L24.5 4h-8a3.5 3.5 0 0 0 0 7h8l1.5 2v12a3 3 0 0 0-3 3v2h-3.278A1.993 1.993 0 0 0 18 29h-3a1.993 1.993 0 0 0-1.722 1H10a1.993 1.993 0 0 0-1.722 1H6a3 3 0 0 0-2.816 2H2a2 2 0 0 0-2 2v18a2 2 0 0 0 2 2h1.184A3 3 0 0 0 6 57h2.278c.354.617 1.01.998 1.722 1h3a2 2 0 0 0 2 2h3a2 2 0 0 0 2-2h20a2 2 0 0 0 2 2h3a2 2 0 0 0 2-2h3a1.993 1.993 0 0 0 1.722-1H54a3 3 0 0 0 2.816-2H58a2 2 0 0 0 2-2V35a2 2 0 0 0-2-2zm-3 1a1 1 0 0 1-1 1h-2v-2h2a1 1 0 0 1 1 1zm-5 2h-3v-4h3zm0 10h-3v-4h3zM32 16.279l-4 1.333v-2.806c.32.122.658.188 1 .194h2c.342-.006.68-.072 1-.194zm-4 3.442 4-1.333v1.891l-4 1.333zM28.2 2.4A1 1 0 0 1 29 2h2a1 1 0 0 1 .8.4L33 4h-6zM15 7.5A1.5 1.5 0 0 1 16.5 6h27a1.5 1.5 0 0 1 0 3h-27A1.5 1.5 0 0 1 15 7.5zM33 11l-1.2 1.6a1 1 0 0 1-.8.4h-2a1 1 0 0 1-.8-.4L27 11zm-5 12.721 4-1.333V25h-4zM25 28a1 1 0 0 1 1-1h8a1 1 0 0 1 1 1v2H25zM10 42h3v4h-3zm3-10v4h-3v-4zm-7 1h2v2H6a1 1 0 0 1 0-2zm-4 2h1.184A3 3 0 0 0 6 37h2.278c.354.617 1.01.998 1.722 1h3v2h-3a1.993 1.993 0 0 0-1.722 1H6a3 3 0 0 0 0 6h2.278c.354.617 1.01.998 1.722 1h3v2h-3a1.993 1.993 0 0 0-1.722 1H6a3 3 0 0 0-2.816 2H2zm4 10a1 1 0 0 1 0-2h2v2zm-1 9a1 1 0 0 1 1-1h2v2H6a1 1 0 0 1-1-1zm5 2v-4h3v4zm5 2V31h3v27zm5-2V32h20v24zm25 2h-3V31h3zm2-2v-4h3v4zm7-1h-2v-2h2a1 1 0 0 1 0 2zm4-2h-1.184A3 3 0 0 0 54 51h-2.278A1.993 1.993 0 0 0 50 50h-3v-2h3a1.993 1.993 0 0 0 1.722-1H54a3 3 0 0 0 0-6h-2.278A1.993 1.993 0 0 0 50 40h-3v-2h3a1.993 1.993 0 0 0 1.722-1H54a3 3 0 0 0 2.816-2H58zm-4-10a1 1 0 0 1 0 2h-2v-2z" fill="#FFFFFF" opacity="1" data-original="#000000"></path>
                                                                <path d="M36.227 42.365a15.651 15.651 0 0 0-2.575-2.745l-.34-.31a2.532 2.532 0 0 1-.884-1.663 4.1 4.1 0 0 1-.023-.334l-.061-2.339a1 1 0 0 0-1.705-.682l-1.652 1.644c-.151.15-.3.3-.53.512a14.7 14.7 0 0 0-1.309 1.357 4.54 4.54 0 0 0-1.142 4.313c.14.414.334.807.577 1.17.17.238.3.502.384.782a.3.3 0 0 1-.069.306.67.67 0 0 1-.579.138 1.22 1.22 0 0 1-.619-.384l-1.22-1.33a1 1 0 0 0-1.7.4l-.489 1.745a6.851 6.851 0 0 0 1.2 6.321 8.2 8.2 0 0 0 4.172 2.411c.866.215 1.754.324 2.646.323a7.886 7.886 0 0 0 6.4-2.763 6.494 6.494 0 0 0 1.104-5.437 10.492 10.492 0 0 0-1.586-3.435zm-1.107 7.656A5.926 5.926 0 0 1 30.309 52c-.726 0-1.45-.088-2.154-.263A6.241 6.241 0 0 1 25 49.948a4.839 4.839 0 0 1-.782-4.464v-.01c.436.49 1.013.834 1.651.986.87.197 1.78-.05 2.431-.66a2.29 2.29 0 0 0 .621-2.138 4.355 4.355 0 0 0-.642-1.426 3.248 3.248 0 0 1-.363-.7 2.674 2.674 0 0 1 .778-2.468c.371-.432.769-.84 1.191-1.222.184-.176.348-.332.509-.492l.007-.007v.019c0 .17.015.336.033.5a4.55 4.55 0 0 0 1.526 2.923l.346.314c.848.709 1.61 1.514 2.27 2.4a8.542 8.542 0 0 1 1.291 2.775 4.479 4.479 0 0 1-.747 3.743z" fill="#FFFFFF" opacity="1" data-original="#000000"></path>
                                                            </g>
                                                        </g>
                                                    </svg>